REM DIRINDEX 1\2\6,1\2\7,1\2\8,1\2\9,1\3\10,1\3\11,1\4\12,1\4\13,1\4\14,1\5\15,1\5\16,1\5\17
REM DIRNAME cjc029,folder01,folder02,folder03,folder04,folder05,folder06,folder07,folder08,folder09,folder10,folder11,folder12,folder13,folder14,folder15,folder16
TITLE ""
FILE "1400_2_sec12_1101_1116.mp3" MP3
  TRACK 01 AUDIO
    TITLE "0:"
    INDEX 01 00:00:00
  TRACK 02 AUDIO
    TITLE "12:cjc029_3812"
    INDEX 01 00:03:25
  TRACK 03 AUDIO
    TITLE "0:"
    INDEX 01 00:07:56
  TRACK 04 AUDIO
    TITLE "12:cjc029_3813"
    INDEX 01 00:08:28
  TRACK 05 AUDIO
    TITLE "0:"
    INDEX 01 00:10:10
  TRACK 06 AUDIO
    TITLE "12:cjc029_3814"
    INDEX 01 00:10:65
  TRACK 07 AUDIO
    TITLE "0:"
    INDEX 01 00:12:12
  TRACK 08 AUDIO
    TITLE "13:cjc029_3815"
    INDEX 01 00:13:12
  TRACK 09 AUDIO
    TITLE "0:"
    INDEX 01 00:14:51
  TRACK 10 AUDIO
    TITLE "14:cjc029_3816"
    INDEX 01 00:14:60
  TRACK 11 AUDIO
    TITLE "0:"
    INDEX 01 00:17:27
  TRACK 12 AUDIO
    TITLE "13:cjc029_3817"
    INDEX 01 00:18:07
  TRACK 13 AUDIO
    TITLE "0:"
    INDEX 01 00:19:34
  TRACK 14 AUDIO
    TITLE "14:cjc029_3818"
    INDEX 01 00:19:36
  TRACK 15 AUDIO
    TITLE "0:"
    INDEX 01 00:20:61
  TRACK 16 AUDIO
    TITLE "13:cjc029_3819"
    INDEX 01 00:21:43
  TRACK 17 AUDIO
    TITLE "0:"
    INDEX 01 00:22:60
  TRACK 18 AUDIO
    TITLE "14:cjc029_3820"
    INDEX 01 00:22:70
  TRACK 19 AUDIO
    TITLE "0:"
    INDEX 01 00:25:52
  TRACK 20 AUDIO
    TITLE "13:cjc029_3821"
    INDEX 01 00:26:34
  TRACK 21 AUDIO
    TITLE "0:"
    INDEX 01 00:27:57
  TRACK 22 AUDIO
    TITLE "14:cjc029_3822"
    INDEX 01 00:27:63
  TRACK 23 AUDIO
    TITLE "0:"
    INDEX 01 00:31:29
  TRACK 24 AUDIO
    TITLE "13:cjc029_3823"
    INDEX 01 00:32:09
  TRACK 25 AUDIO
    TITLE "0:"
    INDEX 01 00:33:34
  TRACK 26 AUDIO
    TITLE "14:cjc029_3824"
    INDEX 01 00:33:40
  TRACK 27 AUDIO
    TITLE "0:"
    INDEX 01 00:37:20
  TRACK 28 AUDIO
    TITLE "13:cjc029_3825"
    INDEX 01 00:38:04
  TRACK 29 AUDIO
    TITLE "0:"
    INDEX 01 00:39:05
  TRACK 30 AUDIO
    TITLE "14:cjc029_3826"
    INDEX 01 00:39:09
  TRACK 31 AUDIO
    TITLE "0:"
    INDEX 01 00:42:19
  TRACK 32 AUDIO
    TITLE "13:cjc029_3827"
    INDEX 01 00:42:74
  TRACK 33 AUDIO
    TITLE "0:"
    INDEX 01 00:44:05
  TRACK 34 AUDIO
    TITLE "14:cjc029_3828"
    INDEX 01 00:44:09
  TRACK 35 AUDIO
    TITLE "0:"
    INDEX 01 00:46:49
  TRACK 36 AUDIO
    TITLE "13:cjc029_3829"
    INDEX 01 00:47:28
  TRACK 37 AUDIO
    TITLE "0:"
    INDEX 01 00:48:57
  TRACK 38 AUDIO
    TITLE "14:cjc029_3830"
    INDEX 01 00:48:61
  TRACK 39 AUDIO
    TITLE "0:"
    INDEX 01 00:51:36
  TRACK 40 AUDIO
    TITLE "13:cjc029_3831"
    INDEX 01 00:52:16
  TRACK 41 AUDIO
    TITLE "0:"
    INDEX 01 00:53:60
  TRACK 42 AUDIO
    TITLE "14:cjc029_3832"
    INDEX 01 00:53:64
  TRACK 43 AUDIO
    TITLE "0:"
    INDEX 01 00:55:16
  TRACK 44 AUDIO
    TITLE "13:cjc029_3833"
    INDEX 01 00:55:73
  TRACK 45 AUDIO
    TITLE "0:"
    INDEX 01 00:57:19
  TRACK 46 AUDIO
    TITLE "14:cjc029_3834"
    INDEX 01 00:57:27
  TRACK 47 AUDIO
    TITLE "0:"
    INDEX 01 01:01:52
  TRACK 48 AUDIO
    TITLE "13:cjc029_3835"
    INDEX 01 01:02:36
  TRACK 49 AUDIO
    TITLE "0:"
    INDEX 01 01:04:01
  TRACK 50 AUDIO
    TITLE "14:cjc029_3836"
    INDEX 01 01:04:05
  TRACK 51 AUDIO
    TITLE "0:"
    INDEX 01 01:05:26
  TRACK 52 AUDIO
    TITLE "13:cjc029_3837"
    INDEX 01 01:06:08
  TRACK 53 AUDIO
    TITLE "0:"
    INDEX 01 01:07:43
  TRACK 54 AUDIO
    TITLE "14:cjc029_3838"
    INDEX 01 01:07:47
  TRACK 55 AUDIO
    TITLE "0:"
    INDEX 01 01:09:03
  TRACK 56 AUDIO
    TITLE "13:cjc029_3839"
    INDEX 01 01:09:63
  TRACK 57 AUDIO
    TITLE "0:"
    INDEX 01 01:11:15
  TRACK 58 AUDIO
    TITLE "14:cjc029_3840"
    INDEX 01 01:11:17
  TRACK 59 AUDIO
    TITLE "0:"
    INDEX 01 01:14:10
  TRACK 60 AUDIO
    TITLE "13:cjc029_3841"
    INDEX 01 01:14:66
  TRACK 61 AUDIO
    TITLE "0:"
    INDEX 01 01:16:14
  TRACK 62 AUDIO
    TITLE "14:cjc029_3842"
    INDEX 01 01:16:24
  TRACK 63 AUDIO
    TITLE "0:"
    INDEX 01 01:19:07
  TRACK 64 AUDIO
    TITLE "13:cjc029_3843"
    INDEX 01 01:19:64
  TRACK 65 AUDIO
    TITLE "0:"
    INDEX 01 01:21:10
  TRACK 66 AUDIO
    TITLE "14:cjc029_3844"
    INDEX 01 01:21:14
  TRACK 67 AUDIO
    TITLE "0:"
    INDEX 01 01:22:54
  TRACK 68 AUDIO
    TITLE "13:cjc029_3845"
    INDEX 01 01:23:38
  TRACK 69 AUDIO
    TITLE "0:"
    INDEX 01 01:24:53
  TRACK 70 AUDIO
    TITLE "14:cjc029_3846"
    INDEX 01 01:24:59
  TRACK 71 AUDIO
    TITLE "0:"
    INDEX 01 01:28:43
